<svg width="26" height="27" viewBox="0 0 26 27" fill="none" xmlns="http://www.w3.org/2000/svg">
<path d="M8.39931 16.3462C8.20206 16.1431 7.88324 16.1431 7.686 16.3462L1.97899 22.2228C1.78174 22.4259 1.78174 22.7542 1.97899 22.9572C2.07736 23.0585 2.2065 23.1094 2.33565 23.1094C2.46479 23.1094 2.59393 23.0585 2.6923 22.9572L8.39931 17.0806C8.59655 16.8775 8.59655 16.5487 8.39931 16.3462Z" fill="#27AE60"/>
<path d="M9.11275 17.8152L3.40575 23.6918C3.2085 23.8949 3.2085 24.2232 3.40575 24.4262C3.50412 24.5275 3.63326 24.5784 3.7624 24.5784C3.89155 24.5784 4.02069 24.5275 4.11906 24.4262L9.82606 18.5496C10.0233 18.3465 10.0233 18.0182 9.82606 17.8152C9.62882 17.6121 9.31 17.6121 9.11275 17.8152Z" fill="#27AE60"/>
<path d="M18.3883 15.238L15.7156 12.4861L21.8398 6.18107H23.0576C23.1918 6.18107 23.3199 6.12653 23.4143 6.02888L25.5547 3.82504C25.6495 3.72739 25.7025 3.59546 25.7025 3.45782C25.7025 3.32018 25.6495 3.18773 25.5547 3.0906L22.7009 0.152316C22.5037 -0.050772 22.1849 -0.050772 21.9876 0.152316L19.8472 2.35564C19.7523 2.45329 19.6994 2.58522 19.6994 2.72286V3.97671L13.5757 10.2823C12.9032 9.58941 11.4599 8.10339 10.9035 7.53049C11.5437 5.49649 11.0296 3.25265 9.54952 1.72975C8.13702 0.274896 6.06013 -0.284505 4.12954 0.269702C3.95701 0.319565 3.82282 0.459805 3.77742 0.637961C3.73202 0.816118 3.78196 1.00674 3.90858 1.13763L5.80184 3.08696L5.21414 5.34534L3.01971 5.95097L1.12696 4.00216C1.00034 3.87127 0.815701 3.81985 0.642669 3.86711C0.469133 3.91386 0.332927 4.05202 0.285003 4.23018C-0.253767 6.21691 0.289543 8.35478 1.70205 9.81016C3.18165 11.3336 5.36094 11.8623 7.33592 11.2037L10.0081 13.9555L9.34571 14.6375C8.94366 14.4396 8.50174 14.3316 8.04268 14.3316C7.23402 14.3316 6.4743 14.6557 5.90274 15.2447L0.908018 20.3858C-0.271423 21.6012 -0.271423 23.5781 0.908018 24.7935L1.62184 25.5279C2.1934 26.1169 2.95363 26.441 3.76229 26.441C4.57095 26.441 5.33067 26.1169 5.90223 25.5279L10.8959 20.3858C11.468 19.7978 11.7828 19.0151 11.7828 18.183C11.7828 17.7103 11.6779 17.2553 11.4857 16.8414L12.148 16.1594L14.8207 18.9112C14.1805 20.9452 14.6951 23.1885 16.1747 24.7119C17.227 25.7954 18.6466 26.3823 20.1004 26.3823C20.5988 26.3823 21.1018 26.3133 21.5947 26.1715C21.7677 26.1216 21.9014 25.9819 21.9468 25.8032C21.9927 25.6245 21.9422 25.4344 21.8156 25.3041L19.9223 23.3547L20.51 21.0958L22.704 20.4907L24.5972 22.4401C24.7239 22.5709 24.9085 22.6229 25.082 22.5751C25.2556 22.5284 25.3918 22.3907 25.4397 22.2126C25.978 20.2258 25.4346 18.0874 24.0216 16.6326C22.5425 15.1081 20.3627 14.5783 18.3883 15.238ZM7.82374 10.2366C7.68249 10.0906 7.4691 10.0444 7.28295 10.1202C5.60258 10.7986 3.69116 10.3888 2.41536 9.07572C1.47907 8.11118 1.00942 6.77942 1.09971 5.44351L2.51222 6.89785C2.63934 7.02926 2.826 7.08068 2.99953 7.03238L5.75644 6.27144C5.93048 6.22366 6.06669 6.08342 6.1131 5.90422L6.85163 3.06671C6.89855 2.88751 6.84861 2.69637 6.72098 2.56496L5.30797 1.10958C6.60344 1.01401 7.89941 1.49966 8.8362 2.46419C10.1115 3.77674 10.51 5.74425 9.85523 7.4666C9.72608 7.78759 9.72608 7.78759 11.5911 9.70784L12.8623 11.0167L10.7219 13.2206L7.82374 10.2366ZM20.5605 4.55948C20.6553 4.46183 20.7083 4.3299 20.7083 4.19226V2.93841L22.3443 1.2545L24.4847 3.45782L22.8488 5.14225H21.631C21.4968 5.14225 21.3687 5.19679 21.2743 5.29444L10.8969 15.9792L10.1831 15.2447L20.5605 4.55948ZM10.1826 19.6514L5.18841 24.7935C4.42667 25.5788 3.0974 25.5788 2.33515 24.7935L1.62133 24.059C0.834366 23.2488 0.834366 21.93 1.62133 21.1202L6.61605 15.9792C6.99692 15.5865 7.5034 15.3704 8.04268 15.3704C8.58195 15.3704 9.08844 15.5865 9.46931 15.9792L10.1826 16.7136C10.564 17.1063 10.7739 17.6283 10.7739 18.183C10.7739 18.7377 10.564 19.2592 10.1826 19.6514ZM24.6245 20.9987L23.2115 19.5438C23.0843 19.4124 22.8997 19.36 22.7241 19.4093L19.9677 20.1697C19.7937 20.218 19.658 20.3577 19.6111 20.5369L18.8726 23.375C18.8256 23.5542 18.8756 23.7453 19.0032 23.8767L20.4167 25.3321C19.1167 25.4256 17.8248 24.942 16.888 23.9775C15.6132 22.665 15.2147 20.6974 15.873 18.9657C15.9461 18.7736 15.9018 18.5554 15.7595 18.4095L12.8613 15.4255L15.0023 13.2206L17.9004 16.2046C18.0427 16.351 18.2541 16.3973 18.4412 16.3209C20.1226 15.6431 22.034 16.0529 23.3083 17.3665C24.2451 18.3305 24.7148 19.6623 24.6245 20.9987Z" fill="#27AE60"/>
</svg>
