<svg width="31" height="24" viewBox="0 0 31 24" fill="none" xmlns="http://www.w3.org/2000/svg">
<path d="M29.2937 5.1692L27.7578 6.05599L27.3127 5.28508L25.7767 6.17187L25.4429 5.59369L22.872 5.27927L21.5921 6.01818L19.1442 1.7782C18.7761 1.14066 17.9597 0.920249 17.3246 1.28693L16.9406 1.50863L16.718 1.12318C16.35 0.485641 15.5336 0.265225 14.8984 0.631911L4.14674 6.83941C3.64678 7.12806 3.41111 7.69532 3.51051 8.23462L0.367934 10.049L1.70318 12.3617L4.7751 10.5881L5.70621 12.2009C5.35253 12.6178 5.27516 13.2278 5.56491 13.7297L7.12269 16.4279L4.81876 17.758L8.37941 23.9253L10.6834 22.5951L10.9059 22.9805C11.274 23.6181 12.0904 23.8385 12.7255 23.4718L24.2452 16.8209C24.7451 16.5323 24.9808 15.965 24.8814 15.4257L25.3361 15.1632C25.836 14.8746 26.0717 14.3073 25.9723 13.768L27.3232 12.9881L28.336 10.6046L28.0021 10.0264L29.5381 9.13961L29.093 8.3687L30.629 7.48192L29.2937 5.1692ZM15.9501 1.56657L16.1726 1.95202L14.6366 2.83881L16.417 5.92243L7.9692 10.7998L5.74379 6.94523L15.3435 1.40282C15.5551 1.28066 15.8272 1.3538 15.9501 1.56657ZM4.59182 7.61032L4.97581 7.38862L7.20122 11.2431L6.43324 11.6865L4.43037 8.21747C4.30753 8.0047 4.38024 7.73247 4.59182 7.61032ZM2.02608 11.1474L1.581 10.3765L3.88493 9.04631L4.33002 9.81722L2.02608 11.1474ZM7.56778 17.1988L8.13659 18.184C7.8331 18.1824 7.52596 18.2508 7.24488 18.4131C6.9638 18.5753 6.75102 18.8071 6.60063 19.0708L6.03182 18.0855L7.56778 17.1988ZM8.90302 19.5115C9.14849 19.9366 9.00367 20.4812 8.58013 20.7258C8.15659 20.9703 7.61253 20.8234 7.36706 20.3983C7.1216 19.9731 7.26642 19.4285 7.68996 19.184C8.1135 18.9394 8.65756 19.0863 8.90302 19.5115ZM8.70231 22.711L8.1335 21.7258C8.43699 21.7273 8.74413 21.659 9.02521 21.4967C9.30629 21.3344 9.51907 21.1026 9.66945 20.839L10.2383 21.8242L8.70231 22.711ZM23.9615 15.4429C24.0844 15.6556 24.0117 15.9279 23.8001 16.05L14.2004 21.5924L9.08191 12.727L8.31393 13.1704L13.4324 22.0358L12.2804 22.7009C12.0688 22.8231 11.7967 22.7499 11.6739 22.5372L6.33289 13.2863C6.21004 13.0735 6.28276 12.8013 6.49433 12.6791L16.0941 7.13673L21.4351 16.3876L22.203 15.9442L16.8621 6.69334L18.014 6.02825C18.2256 5.90609 18.4977 5.97923 18.6206 6.192L23.9615 15.4429ZM25.0524 13.7852C25.1753 13.9979 25.1025 14.2702 24.891 14.3923L24.507 14.614L19.3885 5.74861C19.0205 5.11107 18.2041 4.89066 17.5689 5.25734L17.185 5.47904L15.8497 3.16632L17.7697 2.05784C17.9812 1.93569 18.2533 2.00883 18.3762 2.2216L25.0524 13.7852ZM27.3454 10.6625L26.622 12.3651L25.5979 12.9563L22.0372 6.78909L23.0613 6.19782L24.8975 6.42254L27.3454 10.6625ZM28.325 8.8121L27.5571 9.25549L26.2218 6.94278L26.9898 6.49938L28.325 8.8121ZM29.4159 7.15441L28.6479 7.5978L28.2029 6.82689L28.9708 6.3835L29.4159 7.15441Z" fill="#27AE60"/>
</svg>
